<svg width="35" height="38" viewBox="0 0 35 38" fill="none" xmlns="http://www.w3.org/2000/svg">
<path d="M10.4971 30.4C8.57264 30.4 7.01557 32.11 7.01557 34.2C7.01557 36.29 8.57264 38 10.4971 38C12.4216 38 13.9961 36.29 13.9961 34.2C13.9961 32.11 12.4216 30.4 10.4971 30.4ZM0 1.9C0 2.945 0.787283 3.8 1.74952 3.8H3.49904L9.7973 18.221L7.43545 22.857C6.1583 25.403 7.83784 28.5 10.4971 28.5H29.7418C30.704 28.5 31.4913 27.645 31.4913 26.6C31.4913 25.555 30.704 24.7 29.7418 24.7H10.4971L12.4216 20.9H25.4555C26.7676 20.9 27.9223 20.121 28.5171 18.943L34.7804 6.612C34.9279 6.32401 35.0035 5.9992 34.9999 5.66971C34.9962 5.34022 34.9134 5.01747 34.7597 4.7334C34.6059 4.44933 34.3865 4.21379 34.1232 4.05008C33.8599 3.88637 33.5618 3.80017 33.2583 3.8H7.36547L6.19329 1.083C6.05269 0.758684 5.82992 0.484579 5.55106 0.29278C5.2722 0.10098 4.94881 -0.000575435 4.61873 2.45261e-06H1.74952C0.787283 2.45261e-06 0 0.855002 0 1.9ZM27.9923 30.4C26.0678 30.4 24.5108 32.11 24.5108 34.2C24.5108 36.29 26.0678 38 27.9923 38C29.9168 38 31.4913 36.29 31.4913 34.2C31.4913 32.11 29.9168 30.4 27.9923 30.4Z" fill="#C59407"/>
</svg>
