<svg width="35" height="25" viewBox="0 0 35 25" fill="none" xmlns="http://www.w3.org/2000/svg">
<path d="M0.416687 2.25008C0.416687 1.797 0.596672 1.36248 0.917046 1.04211C1.23742 0.721733 1.67194 0.541748 2.12502 0.541748H32.875C33.3281 0.541748 33.7626 0.721733 34.083 1.04211C34.4034 1.36248 34.5834 1.797 34.5834 2.25008C34.5834 2.70316 34.4034 3.13768 34.083 3.45806C33.7626 3.77843 33.3281 3.95841 32.875 3.95841H2.12502C1.67194 3.95841 1.23742 3.77843 0.917046 3.45806C0.596672 3.13768 0.416687 2.70316 0.416687 2.25008ZM0.416687 12.5547C0.416687 12.1017 0.596672 11.6671 0.917046 11.3468C1.23742 11.0264 1.67194 10.8464 2.12502 10.8464H32.875C33.3281 10.8464 33.7626 11.0264 34.083 11.3468C34.4034 11.6671 34.5834 12.1017 34.5834 12.5547C34.5834 13.0078 34.4034 13.4423 34.083 13.7627C33.7626 14.0831 33.3281 14.2631 32.875 14.2631H2.12502C1.67194 14.2631 1.23742 14.0831 0.917046 13.7627C0.596672 13.4423 0.416687 13.0078 0.416687 12.5547ZM2.12502 21.1511C1.67194 21.1511 1.23742 21.3311 0.917046 21.6514C0.596672 21.9718 0.416687 22.4063 0.416687 22.8594C0.416687 23.3125 0.596672 23.747 0.917046 24.0674C1.23742 24.3878 1.67194 24.5677 2.12502 24.5677H32.875C33.3281 24.5677 33.7626 24.3878 34.083 24.0674C34.4034 23.747 34.5834 23.3125 34.5834 22.8594C34.5834 22.4063 34.4034 21.9718 34.083 21.6514C33.7626 21.3311 33.3281 21.1511 32.875 21.1511H2.12502Z" fill="black"/>
</svg>
