<svg width="40" height="37" viewBox="0 0 40 37" fill="none" xmlns="http://www.w3.org/2000/svg">
<path d="M19.9009 12.1443C16.2457 12.1443 13.2628 14.8746 13.2628 18.2203C13.2628 21.5659 16.2457 24.2963 19.9009 24.2963C23.5561 24.2963 26.539 21.5659 26.539 18.2203C26.539 14.8746 23.5561 12.1443 19.9009 12.1443ZM39.8103 18.2203C39.8103 15.7042 39.8352 13.2109 39.6808 10.6993C39.5264 7.78211 38.7994 5.19308 36.4688 3.05987C34.1333 0.922101 31.3097 0.26117 28.1226 0.119867C25.3737 -0.021435 22.6498 0.00135579 19.9059 0.00135579C17.157 0.00135579 14.433 -0.021435 11.6892 0.119867C8.50206 0.26117 5.67351 0.926659 3.34295 3.05987C1.00741 5.19764 0.285332 7.78211 0.130957 10.6993C-0.023418 13.2154 0.00148122 15.7087 0.00148122 18.2203C0.00148122 20.7318 -0.023418 23.2297 0.130957 25.7412C0.285332 28.6584 1.01239 31.2474 3.34295 33.3806C5.67849 35.5184 8.50206 36.1794 11.6892 36.3207C14.438 36.462 17.162 36.4392 19.9059 36.4392C22.6547 36.4392 25.3787 36.462 28.1226 36.3207C31.3097 36.1794 34.1382 35.5139 36.4688 33.3806C38.8044 31.2429 39.5264 28.6584 39.6808 25.7412C39.8402 23.2297 39.8103 20.7364 39.8103 18.2203V18.2203ZM19.9009 27.569C14.2488 27.569 9.68726 23.3938 9.68726 18.2203C9.68726 13.0468 14.2488 8.87151 19.9009 8.87151C25.553 8.87151 30.1145 13.0468 30.1145 18.2203C30.1145 23.3938 25.553 27.569 19.9009 27.569ZM30.5328 10.672C29.2132 10.672 28.1475 9.69653 28.1475 8.48862C28.1475 7.28071 29.2132 6.30527 30.5328 6.30527C31.8525 6.30527 32.9182 7.28071 32.9182 8.48862C32.9186 8.77544 32.8571 9.05952 32.7374 9.32458C32.6177 9.58964 32.442 9.83047 32.2204 10.0333C31.9988 10.2361 31.7357 10.3969 31.4461 10.5065C31.1566 10.6161 30.8462 10.6723 30.5328 10.672V10.672Z" fill="#C59407"/>
</svg>
