<svg width="57" height="38" viewBox="0 0 57 38" fill="none" xmlns="http://www.w3.org/2000/svg">
<path d="M56.1459 5.78789H48.204C42.7017 1.94466 35.9699 0 28.0729 0C20.176 0 13.4413 1.94466 7.94183 5.78789H0C1.20152 6.9979 2.32163 9.64841 2.78764 11.6651C0.987661 14.1242 0.00990144 17.1143 0 20.1899C0 28.1328 6.29676 34.5948 14.0365 34.5948C17.6162 34.5884 21.0565 33.1701 23.6458 30.6335L28.0729 37.4528L32.5 30.6364C35.0889 33.1741 38.5293 34.5933 42.1094 34.6006C49.8491 34.6006 56.1459 28.1385 56.1459 20.1957C56.1459 16.992 55.0875 14.0592 53.3582 11.668C53.8242 9.65129 54.9444 7.00079 56.1459 5.79077V5.78789ZM14.0365 29.9881C8.77279 29.9881 4.49167 25.5946 4.49167 20.1928C4.49167 14.791 8.77279 10.3975 14.0365 10.3975C19.3001 10.3975 23.5813 14.791 23.5813 20.1928C23.5813 25.5946 19.3001 29.9881 14.0365 29.9881ZM28.0729 20.1928C28.0682 16.8695 26.9457 13.6499 24.8951 11.0778C22.8446 8.50568 19.9917 6.73891 16.8185 6.07599C20.1985 4.90919 23.9462 4.32147 28.0729 4.32147C32.1997 4.32147 35.9474 4.90919 39.3274 6.07887C36.1551 6.7416 33.303 8.50752 31.2525 11.0784C29.2021 13.6493 28.079 16.8677 28.0729 20.1899V20.1928ZM42.1094 29.9881C36.8457 29.9881 32.5646 25.5946 32.5646 20.1928C32.5646 14.791 36.8457 10.3975 42.1094 10.3975C47.3731 10.3975 51.6542 14.791 51.6542 20.1928C51.6542 25.5946 47.3731 29.9881 42.1094 29.9881V29.9881ZM14.0365 14.0016C10.7098 14.0016 8.00079 16.7788 8.00079 20.1957C8.00079 23.6125 10.7098 26.3898 14.0365 26.3898C17.3631 26.3898 20.0721 23.6125 20.0721 20.1957C20.0721 16.7788 17.3631 14.0016 14.0365 14.0016ZM14.0365 22.0424C13.5525 22.0424 13.0884 21.8451 12.7462 21.4939C12.404 21.1427 12.2117 20.6664 12.2117 20.1698C12.2117 19.6731 12.404 19.1968 12.7462 18.8456C13.0884 18.4944 13.5525 18.2971 14.0365 18.2971C14.5204 18.2971 14.9845 18.4944 15.3268 18.8456C15.669 19.1968 15.8612 19.6731 15.8612 20.1698C15.8612 20.6664 15.669 21.1427 15.3268 21.4939C14.9845 21.8451 14.5204 22.0424 14.0365 22.0424ZM42.1094 14.0016C38.7828 14.0016 36.0737 16.7788 36.0737 20.1957C36.0737 23.6125 38.7828 26.3898 42.1094 26.3898C45.436 26.3898 48.1451 23.6125 48.1451 20.1957C48.1451 16.7788 45.436 14.0016 42.1094 14.0016V14.0016ZM42.1094 22.0424C41.6255 22.0424 41.1613 21.8451 40.8191 21.4939C40.4769 21.1427 40.2847 20.6664 40.2847 20.1698C40.2847 19.6731 40.4769 19.1968 40.8191 18.8456C41.1613 18.4944 41.6255 18.2971 42.1094 18.2971C42.5934 18.2971 43.0575 18.4944 43.3997 18.8456C43.7419 19.1968 43.9341 19.6731 43.9341 20.1698C43.9341 20.6664 43.7419 21.1427 43.3997 21.4939C43.0575 21.8451 42.5934 22.0424 42.1094 22.0424V22.0424Z" fill="#C59407"/>
</svg>
