<svg width="48" height="68" viewBox="0 0 48 68" fill="none" xmlns="http://www.w3.org/2000/svg">
<g filter="url(#filter0_d_640_941)">
<path d="M27.9445 54.375V54.875H28.4445H34.0002C36.8751 54.875 39.0558 56.8262 39.0558 59.0625C39.0558 59.2281 38.8654 59.5 38.4447 59.5H9.55533C9.13459 59.5 8.94421 59.2281 8.94421 59.0625C8.94421 56.8262 11.1249 54.875 13.9998 54.875H19.5555H20.0555V54.375V40.643V40.2314L19.6516 40.1523C10.3195 38.325 3.69151 31.0027 4.58023 22.6301C4.58023 22.6301 4.58023 22.6301 4.58024 22.6301L6.79693 1.75788L6.797 1.75729C6.86539 1.10593 7.53938 0.5 8.48032 0.5H39.5197C40.4616 0.5 41.135 1.1057 41.2045 1.758L43.4198 22.6289C44.3085 31.0015 37.6805 38.3238 28.3484 40.1511L27.9445 40.2302V40.6418V54.375Z" stroke="black"/>
<path d="M22.6669 9.02344C22.6669 11.0657 20.6729 12.8594 18.0279 12.8594C15.3829 12.8594 13.3889 11.0657 13.3889 9.02344C13.3889 6.98116 15.3829 5.1875 18.0279 5.1875C20.6729 5.1875 22.6669 6.98116 22.6669 9.02344Z" stroke="#1C1B1B"/>
<path d="M31.9728 30.8203C31.9728 32.8626 29.9788 34.6562 27.3338 34.6562C24.6888 34.6562 22.6948 32.8626 22.6948 30.8203C22.6948 28.778 24.6888 26.9844 27.3338 26.9844C29.9788 26.9844 31.9728 28.778 31.9728 30.8203Z" stroke="#1C1B1B"/>
<path d="M31.9727 17.7539C31.9727 19.1813 30.5695 20.4766 28.6532 20.4766C26.7369 20.4766 25.3337 19.1813 25.3337 17.7539C25.3337 16.3265 26.7369 15.0312 28.6532 15.0312C30.5695 15.0312 31.9727 16.3265 31.9727 17.7539Z" stroke="#1C1B1B"/>
<path d="M17.8057 23.2617C17.8057 24.1714 16.8999 25.0469 15.5973 25.0469C14.2947 25.0469 13.3889 24.1714 13.3889 23.2617C13.3889 22.3521 14.2947 21.4766 15.5973 21.4766C16.8999 21.4766 17.8057 22.3521 17.8057 23.2617Z" stroke="#1C1B1B"/>
<path d="M34.7505 6.73828C34.7505 7.64794 33.8448 8.52344 32.5421 8.52344C31.2395 8.52344 30.3337 7.64794 30.3337 6.73828C30.3337 5.82862 31.2395 4.95312 32.5421 4.95312C33.8448 4.95312 34.7505 5.82862 34.7505 6.73828Z" stroke="#1C1B1B"/>
</g>
<defs>
<filter id="filter0_d_640_941" x="0" y="0" width="48" height="68" filterUnits="userSpaceOnUse" color-interpolation-filters="sRGB">
<feFlood flood-opacity="0" result="BackgroundImageFix"/>
<feColorMatrix in="SourceAlpha" type="matrix" values="0 0 0 0 0 0 0 0 0 0 0 0 0 0 0 0 0 0 127 0" result="hardAlpha"/>
<feOffset dy="4"/>
<feGaussianBlur stdDeviation="2"/>
<feComposite in2="hardAlpha" operator="out"/>
<feColorMatrix type="matrix" values="0 0 0 0 0 0 0 0 0 0 0 0 0 0 0 0 0 0 0.25 0"/>
<feBlend mode="normal" in2="BackgroundImageFix" result="effect1_dropShadow_640_941"/>
<feBlend mode="normal" in="SourceGraphic" in2="effect1_dropShadow_640_941" result="shape"/>
</filter>
</defs>
</svg>
