<svg width="57" height="53" viewBox="0 0 57 53" fill="none" xmlns="http://www.w3.org/2000/svg">
<path d="M48.75 22.3438C48.7481 20.1634 48.1616 18.0235 47.0516 16.1468C45.9416 14.2702 44.3488 12.7254 42.4389 11.6736C43.8783 10.1722 44.6837 8.17371 44.6875 6.09375H40.625C40.6239 7.17086 40.1956 8.20355 39.4339 8.96518C38.6723 9.72682 37.6396 10.1552 36.5625 10.1562C33.3702 10.1605 30.3069 11.4162 28.0301 13.6539C25.7533 15.8915 24.4447 18.9326 24.3852 22.1244C21.7809 19.4718 20.3189 15.9048 20.3125 12.1875C20.3072 10.3911 19.706 8.64719 18.6033 7.22906C17.5005 5.81093 15.9585 4.79869 14.2188 4.35094V0H10.1562V4.35094C8.41652 4.79869 6.87448 5.81093 5.77173 7.22906C4.66898 8.64719 4.06784 10.3911 4.0625 12.1875V22.3438H0V24.375C0 31.9171 2.99608 39.1503 8.32915 44.4833C13.6622 49.8164 20.8954 52.8125 28.4375 52.8125C35.9796 52.8125 43.2128 49.8164 48.5458 44.4833C53.8789 39.1503 56.875 31.9171 56.875 24.375V22.3438H48.75ZM36.5625 14.2188C38.7166 14.2214 40.7816 15.0783 42.3048 16.6015C43.8279 18.1246 44.6848 20.1897 44.6875 22.3438H28.4375C28.4402 20.1897 29.2971 18.1246 30.8202 16.6015C32.3434 15.0783 34.4084 14.2214 36.5625 14.2188ZM8.125 12.1875C8.125 11.1101 8.55301 10.0767 9.31488 9.31488C10.0767 8.55301 11.1101 8.125 12.1875 8.125C13.2649 8.125 14.2983 8.55301 15.0601 9.31488C15.822 10.0767 16.25 11.1101 16.25 12.1875C16.2581 15.8065 17.3412 19.3414 19.3619 22.3438H8.125V12.1875ZM28.4375 48.75C22.3265 48.7424 16.4407 46.4429 11.943 42.3059C7.44527 38.1689 4.66295 32.4953 4.14578 26.4062H52.7312C52.214 32.4957 49.4314 38.1695 44.9333 42.3066C40.4352 46.4437 34.5488 48.7429 28.4375 48.75V48.75Z" fill="#C59407"/>
</svg>
