<svg width="78" height="60" viewBox="0 0 78 60" fill="none" xmlns="http://www.w3.org/2000/svg">
<path d="M33.7188 7.33196e-06C30.8578 7.33196e-06 28.5312 2.3266 28.5312 5.18751V15.5625H12.9688C8.67869 15.5625 5.1875 19.0537 5.1875 23.3438V30.6581C3.54797 32.2263 2.24308 34.1104 1.35152 36.1966C0.459959 38.2829 0.000209566 40.5281 0 42.7969C0 52.0929 7.56337 59.6563 16.8594 59.6563C26.1554 59.6563 33.7188 52.0929 33.7188 42.7969C33.7137 41.486 33.5552 40.1803 33.2467 38.9063H44.5658C44.2573 40.1803 44.0988 41.486 44.0938 42.7969C44.0937 52.0929 51.6571 59.6563 60.9531 59.6563C70.2491 59.6563 77.8125 52.0929 77.8125 42.7969C77.8125 38.0296 75.8153 33.7291 72.625 30.6581V20.75C72.625 17.8891 70.2984 15.5625 67.4375 15.5625H58.4502L51.1565 4.61948C50.2106 3.19703 48.9273 2.03079 47.4212 1.22476C45.915 0.418733 44.2328 -0.00202562 42.5245 7.33196e-06H33.7188ZM33.7188 5.18751H42.5245C44.2598 5.18751 45.8757 6.05123 46.8405 7.49594L52.2122 15.5625H33.7188V5.18751ZM12.9688 20.75H67.4375V27.2396C65.384 26.379 63.1796 25.9364 60.9531 25.9375C58.1257 25.9404 55.3445 26.6546 52.8656 28.0144C50.3867 29.3742 48.2897 31.3359 46.7679 33.7188H31.0472C29.5251 31.3355 27.4278 29.3736 24.9484 28.0138C22.4689 26.654 19.6872 25.9399 16.8594 25.9375C14.5613 25.9375 12.3722 26.4044 10.375 27.2396V23.3438C10.375 22.6559 10.6483 21.9961 11.1347 21.5097C11.6211 21.0233 12.2808 20.75 12.9688 20.75V20.75ZM16.8594 31.125C17.3081 31.125 17.7361 31.208 18.1718 31.2547L18.0343 32.4919C19.4749 32.6488 20.8652 33.1122 22.1117 33.851L22.7472 32.7772C24.8642 34.0126 26.5399 35.8816 27.5378 38.1204L26.3681 38.6391C26.9439 39.9463 27.2344 41.347 27.2344 42.7969V42.8617L28.5261 42.8332C28.5133 45.3017 27.7107 47.7013 26.2358 49.6807L25.2242 48.9363C24.3735 50.0957 23.2608 51.0891 22.0106 51.805L22.6305 52.884C20.8798 53.9109 18.889 54.4576 16.8594 54.4688C16.434 54.4688 16.0294 54.3858 15.6144 54.3417L15.7389 53.1122C14.2969 52.9608 12.9035 52.5046 11.6511 51.7738L11.0286 52.8477C8.90579 51.6235 7.221 49.7636 6.21203 47.5305L7.37663 47.0117C6.79083 45.7063 6.48511 44.2926 6.47919 42.8617L6.48956 42.6542L5.19269 42.7268C5.21394 40.2471 6.03238 37.84 7.52706 35.8612L8.53084 36.6134C9.39761 35.4495 10.4963 34.478 11.7575 33.7603L11.1531 32.6813C12.888 31.674 14.8559 31.1376 16.862 31.125H16.8594ZM60.9531 31.125C63.0385 31.125 64.9657 31.719 66.662 32.6813L66.055 33.7603C67.3078 34.4709 68.4231 35.454 69.2817 36.6134L70.2854 35.8612C71.7224 37.7909 72.6042 40.1513 72.6198 42.732L71.3281 42.7969C71.3281 44.2649 71.0298 45.6811 70.4359 47.0117L71.6031 47.5305C70.5921 49.7648 68.9044 51.6248 66.7787 52.8477L66.1562 51.7738C64.9045 52.506 63.5108 52.9623 62.0684 53.1122L62.1955 54.3417C61.7805 54.3858 61.3785 54.4688 60.9531 54.4688C58.9235 54.4576 56.9327 53.9109 55.182 52.884L55.8019 51.805C54.5431 51.0801 53.4487 50.1014 52.5883 48.9311L51.5767 49.6755C50.1016 47.6962 49.299 45.2965 49.2864 42.828L50.5781 42.7969C50.5781 41.347 50.8686 39.9464 51.4444 38.6365L50.2747 38.1204C51.2726 35.8816 52.9483 34.0126 55.0653 32.7772L55.7008 33.851C56.9472 33.1118 58.3375 32.6484 59.7782 32.4919L59.6407 31.2573C60.0764 31.2054 60.5044 31.125 60.9531 31.125V31.125ZM16.8594 38.9063C15.8275 38.9063 14.8379 39.3162 14.1083 40.0458C13.3787 40.7754 12.9688 41.765 12.9688 42.7969C12.9688 43.8287 13.3787 44.8183 14.1083 45.548C14.8379 46.2776 15.8275 46.6875 16.8594 46.6875C17.8912 46.6875 18.8808 46.2776 19.6105 45.548C20.3401 44.8183 20.75 43.8287 20.75 42.7969C20.75 41.765 20.3401 40.7754 19.6105 40.0458C18.8808 39.3162 17.8912 38.9063 16.8594 38.9063V38.9063ZM60.9531 38.9063C59.9213 38.9063 58.9317 39.3162 58.202 40.0458C57.4724 40.7754 57.0625 41.765 57.0625 42.7969C57.0625 43.8287 57.4724 44.8183 58.202 45.548C58.9317 46.2776 59.9213 46.6875 60.9531 46.6875C61.985 46.6875 62.9746 46.2776 63.7042 45.548C64.4338 44.8183 64.8438 43.8287 64.8438 42.7969C64.8438 41.765 64.4338 40.7754 63.7042 40.0458C62.9746 39.3162 61.985 38.9063 60.9531 38.9063Z" fill="#C59407"/>
</svg>
