<svg width="40" height="63" viewBox="0 0 40 63" fill="none" xmlns="http://www.w3.org/2000/svg">
<path d="M39.6667 31.1667C39.6667 27.2283 36.975 23.9983 33.3767 23.0067C33.8985 21.7174 34.0955 20.3198 33.9504 18.9365C33.8053 17.5533 33.3226 16.2269 32.5447 15.074C31.7667 13.9211 30.7174 12.977 29.489 12.3247C28.2607 11.6725 26.8908 11.332 25.5 11.3333C24.2817 11.3333 23.1483 11.6167 22.1283 12.07C22.6667 9.03833 23.7717 4.505 26.6333 3.4L24.3667 0C19.55 2.18167 18.1333 8.755 17.7367 12.155C16.6317 11.645 15.4417 11.3333 14.1667 11.3333C12.7759 11.332 11.406 11.6725 10.1776 12.3247C8.94925 12.977 7.89995 13.9211 7.12202 15.074C6.34409 16.2269 5.86135 17.5533 5.71627 18.9365C5.57119 20.3198 5.76821 21.7174 6.29 23.0067C2.66333 23.97 0 27.2567 0 31.1667C0 35.105 2.69167 38.3633 6.31833 39.3267C5.92167 40.29 5.66667 41.3667 5.66667 42.5C5.66667 46.4383 8.33 49.6967 11.9567 50.66C11.4349 51.9492 11.2379 53.3469 11.3829 54.7302C11.528 56.1134 12.0108 57.4398 12.7887 58.5927C13.5666 59.7456 14.6159 60.6897 15.8443 61.3419C17.0727 61.9942 18.4425 62.3347 19.8333 62.3333C21.2242 62.3347 22.594 61.9942 23.8224 61.3419C25.0508 60.6897 26.1001 59.7456 26.878 58.5927C27.6559 57.4398 28.1386 56.1134 28.2837 54.7302C28.4288 53.3469 28.2318 51.9492 27.71 50.66C29.5134 50.1873 31.1092 49.1299 32.2474 47.6533C33.3856 46.1767 34.002 44.3644 34 42.5C34 41.3667 33.7733 40.3183 33.3483 39.3267C35.1551 38.8558 36.755 37.7998 37.8981 36.3235C39.0413 34.8472 39.6631 33.0338 39.6667 31.1667ZM32.045 25.16V25.2167H32.0167L32.045 25.16ZM25.5 15.5833C27.8517 15.5833 29.75 17.4817 29.75 19.8333C29.75 22.185 27.8517 24.0833 25.5 24.0833C23.1483 24.0833 21.25 22.185 21.25 19.8333C21.25 17.4817 23.1483 15.5833 25.5 15.5833ZM24.0833 31.1667C24.0833 33.5183 22.185 35.4167 19.8333 35.4167C17.4817 35.4167 15.5833 33.5183 15.5833 31.1667C15.5833 28.815 17.4817 26.9167 19.8333 26.9167C22.185 26.9167 24.0833 28.815 24.0833 31.1667ZM14.1667 15.5833C16.5183 15.5833 18.4167 17.4817 18.4167 19.8333C18.4167 22.185 16.5183 24.0833 14.1667 24.0833C11.815 24.0833 9.91667 22.185 9.91667 19.8333C9.91667 17.4817 11.815 15.5833 14.1667 15.5833ZM4.25 31.1667C4.25 28.815 6.14833 26.9167 8.5 26.9167C10.8517 26.9167 12.75 28.815 12.75 31.1667C12.75 33.5183 10.8517 35.4167 8.5 35.4167C6.14833 35.4167 4.25 33.5183 4.25 31.1667ZM9.91667 42.5C9.91667 40.1483 11.815 38.25 14.1667 38.25C16.5183 38.25 18.4167 40.1483 18.4167 42.5C18.4167 44.8517 16.5183 46.75 14.1667 46.75C11.815 46.75 9.91667 44.8517 9.91667 42.5ZM19.8333 58.0833C17.4817 58.0833 15.5833 56.185 15.5833 53.8333C15.5833 51.4817 17.4817 49.5833 19.8333 49.5833C22.185 49.5833 24.0833 51.4817 24.0833 53.8333C24.0833 56.185 22.185 58.0833 19.8333 58.0833ZM25.5 46.75C23.1483 46.75 21.25 44.8517 21.25 42.5C21.25 40.1483 23.1483 38.25 25.5 38.25C27.8517 38.25 29.75 40.1483 29.75 42.5C29.75 44.8517 27.8517 46.75 25.5 46.75ZM31.1667 35.4167C28.815 35.4167 26.9167 33.5183 26.9167 31.1667C26.9167 28.815 28.815 26.9167 31.1667 26.9167C33.5183 26.9167 35.4167 28.815 35.4167 31.1667C35.4167 33.5183 33.5183 35.4167 31.1667 35.4167Z" fill="#C59407"/>
</svg>
